<?xml version="1.0" encoding="UTF-8"?>
<svg id="Layer_1" data-name="Layer 1" xmlns="http://www.w3.org/2000/svg" viewBox="0 0 290.86 265.88">
  <defs>
    <style>
      .cls-1 {
        fill: #f9f0b6;
      }

      .cls-1, .cls-2, .cls-3, .cls-4, .cls-5, .cls-6, .cls-7, .cls-8, .cls-9 {
        stroke-width: 0px;
      }

      .cls-2 {
        fill: #eecf79;
      }

      .cls-3 {
        fill: #f6ebaf;
      }

      .cls-4 {
        fill: #e1c075;
      }

      .cls-5 {
        fill: #eed88b;
      }

      .cls-6 {
        fill: #f5e49f;
      }

      .cls-7 {
        fill: #bf9254;
      }

      .cls-8 {
        fill: #d9b266;
      }

      .cls-9 {
        fill: #cba05c;
      }
    </style>
  </defs>
  <path class="cls-1" d="m129.32,127.91c-25.68,0-51.36,0-77.04,0,.83-.95,1.95-.56,2.96-.65,2.37,0,4.77-.22,7.1.07,2.73.34,4.35-1.34,4.61-3.27.85-6.33,7.21-7.91,10.16-12.42.87-1.33,2.53-2.44,3.73-3.87,2.65-3.19,5.25-6.74,8.41-9.11,3.56-2.67,6.08-6.27,9.37-9.11,2.89-2.5,5.64-5.94,7.92-9.39.48-.73,1.13-1.53,2.05-1.49,3.44.15,5.29-3.83,8.86-3.35.36.05,1.17-.78,1.2-1.23.14-2.43,2.18-2.78,3.73-3.7,1.24-.73,2.95-.93,3.23-2.78,5.9-2.92,11.83-5.77,17.67-8.8,1.57-.81,2.73-.81,4.3,0,7.59,3.93,15.26,7.71,22.91,11.55-3.03.59-5.17,2.08-6.51,5.09-.75,1.68-2.39,3-4.64,3.27-1.32.16-3.07.41-3.19,2.45-12.76-8.37-25.64.02-28.38,10.03-2.14,7.81.49,14.67,8.49,20.97-1.17.65-3.6-1.2-3.59,1.69,0,.89,2.66.8,1.45,2.29-.9,1.11-1.77-1.06-2.89-.78-.58.14-1.08.59-1.66.73-4.56,1.05-4.85,6.06-8.15,8.58,3.5-.6,4.93,3.11,7.91,3.22Z"/>
  <path class="cls-6" d="m191.54,80.76c7.68,3.73,15.54,7.09,22.87,11.58,4.77,2.91,10.42,4.22,15.24,7.18-3.7.47-5.64,2.6-6.26,6.26-.3,1.78-1.78,2.96-3.07,4.15-4.54,4.18-9.03,8.42-12.94,13.22-.73.89-2.16,1.66-1.52,3.15.66,1.54,2.16.94,3.31.94,9.98.05,19.95.02,29.93.06,1.33,0,2.76-.44,3.95.61-19.71,0-39.42,0-59.13,0-1.18-1.04-2.62-.6-3.94-.61-7.47-.04-14.94-.02-22.42-.03-3.63,0-7.26,0-10.88,0,0-.36,0-.72,0-1.08h11.08c-1.08-1.31-1.88-1.05-2.59-1.17-1.03-.17-2.51.61-2.97-.76-.37-1.09.59-2.09,1.37-2.89,1.73-1.77,2.1-4.48,4.9-5.63,2.31-.95,1.21-4.07,2.04-6.11.68-1.66,1.51-4.09,3.35-2.99,3.32,1.97,4.13-.67,5.61-2.19,1.71-1.76,2.03-4.55,4.39-5.88,5.07-2.86,6.16-9.28,10.97-12.4.24-.16.43-.71.35-.99-1.16-3.78,1.56-4.4,4.13-5.15.22-.01.43.03.63.13-.14.46-.23.94-.44,1.37-.3.61-1.16,1.11-.51,1.87.24.28.9.34,1.34.29.93-.12,1.12-.8.92-1.62-.12-.49-.21-.95.28-1.29Z"/>
  <path class="cls-3" d="m57.4,226.14c.03-22.72.04-45.44.1-68.15,0-2.29-.88-3.64-3.18-3.65-1.83,0-2.46-1.02-2.52-2.54-.09-2.37-.12-4.75-.01-7.11.09-1.87,1.04-2.9,3.11-2.88,8.35.07,16.7.03,25.05.04.37,0,.82-.08,1.1.09,3.5,2.04,1.27,5.39,1.73,8.12.26,1.53.81,4.02-1.77,4.15-3.67.18-3.72,2.41-3.72,5.09,0,20.47-.03,40.94-.06,61.42,0,.62-.13,1.23-.2,1.85-.21-1.16.56-2.64-1.05-3.52q-1.01,4.03-2.93,6.38c-.02-20.95,0-41.91-.1-62.86,0-1.87,1.24-5.13-1.78-5.22-3.33-.1-2.2,3.3-2.21,5.28-.13,20.7-.14,41.4-.19,62.1-1.65-2.45-2.05.44-3.06.72-.01-21.24-.03-42.47-.04-63.71,0-1,.05-2.01-.07-2.99-.12-.99-.82-1.51-1.82-1.5-1,0-1.68.51-1.75,1.55-.07.99-.02,2-.02,3-.03,21.24-.05,42.47-.08,63.71-.92-2.38-1.84-4.75-2.97-7.68-1.5,3.11.36,6.07-1.55,8.35Z"/>
  <path class="cls-6" d="m99.31,226.86c.64-1.37.84-2.8.83-4.33-.04-21.09-.06-42.17,0-63.26,0-2.82-.37-5.03-3.88-4.98-1.03.01-1.78-.76-1.86-1.56-.32-3.09-.57-6.22.12-9.27.31-1.36,1.63-1.68,3-1.68,8.1.04,16.19,0,24.29.08,2.43.03,3.83,1.28,3.65,3.95-.11,1.62-.04,3.24-.03,4.86.02,2.03-.18,3.61-2.94,3.71-2.63.1-2.81,2.24-2.81,4.4,0,12.47-.08,24.95-.13,37.42-2-.13-2.21-1.51-2.22-3.1-.01-1.15.38-2.57-1.42-2.87-.18-.24-.35-.48-.53-.73,0-2.27,0-4.55,0-6.82.72-1.97.71-3.94,0-5.91,0-2.29,0-4.58,0-6.87.69-2.7.7-5.4,0-8.11-.01-.79-.02-1.58-.04-2.38.54-.48.58-.91-.14-1.25-2.87-1.47-3.76-.93-3.79,2.53-.06,6.61-.04,13.22-.02,19.82.05,15.21.12,30.41.18,45.62-1.65-.54-.29-2.62-1.78-3.39-.49.66-.97,1.3-1.45,1.95-.07-20.81-.15-41.62-.23-62.43,0-1,.02-2-.04-2.99-.08-1.23-.48-2.21-1.99-2.11-1.37.09-1.52,1.04-1.51,2.11,0,.87,0,1.74,0,2.62-.02,21.19-.05,42.38-.07,63.56-1.17-1.38.2-3.6-.97-4.55-2.6-2.12-2.76-3.69-.06-5.8.96-.75.53-2.36.31-3.55-.16-.83-.95-.49-1.53-.34-1.74.45-1.33,1.9-1.3,3.05.09,3.08-.35,6.16.58,9.23.49,1.6.2,3.34-2.2,3.35Zm10.32-11.23v-5.68c-.52,1.67-.73,3.33,0,5.68Z"/>
  <path class="cls-3" d="m189.31,80.01c-2.57.75-5.29,1.37-4.13,5.15.09.28-.11.84-.35.99-4.82,3.12-5.91,9.54-10.97,12.4-2.36,1.33-2.68,4.13-4.39,5.88-1.48,1.52-2.29,4.16-5.61,2.19-1.84-1.1-2.67,1.34-3.35,2.99-.83,2.04.27,5.15-2.04,6.11-2.8,1.16-3.18,3.87-4.9,5.63-.79.8-1.74,1.8-1.37,2.89.46,1.37,1.94.59,2.97.76.71.12,1.51-.13,2.59,1.17h-11.08c0,.36,0,.72,0,1.08,3.63,0,7.26,0,10.88,0,7.47,0,14.94-.02,22.42.03,1.32,0,2.76-.44,3.94.61-18.2,0-36.41,0-54.61,0-2.98-.12-4.41-3.82-7.91-3.22,3.3-2.51,3.59-7.52,8.15-8.58.58-.13,1.08-.58,1.66-.73,1.12-.28,1.99,1.89,2.89.78,1.21-1.49-1.44-1.41-1.45-2.29-.02-2.89,2.42-1.03,3.59-1.69,6.14,2.99,12.27,3.04,18.4-.07.15,1.22.2,2.55,2,2.32.76-.1,1.63-.5,1.44-1.27-.37-1.5-1.81-.65-2.76-.93-.23-.07-.48-.06-.72-.09,3.73-2.67,6.85-5.93,8.21-10.38,2.54-8.34.07-15.2-6.68-20.6.11-2.03,1.86-2.29,3.19-2.45,2.24-.27,3.89-1.59,4.64-3.27,1.34-3.01,3.48-4.5,6.51-5.09,6.52,2.74,12.71,6.13,18.84,9.64Zm-48.87,46.84c1.11.62,2.09.53,3.22.08-1.11-.62-2.09-.53-3.22-.08Z"/>
  <path class="cls-5" d="m243.06,127.91c-1.18-1.05-2.62-.61-3.95-.61-9.98-.04-19.95,0-29.93-.06-1.15,0-2.66.59-3.31-.94-.64-1.49.79-2.26,1.52-3.15,3.9-4.8,8.39-9.04,12.94-13.22,1.29-1.19,2.76-2.37,3.07-4.15.62-3.66,2.56-5.79,6.26-6.26.25.08.5.16.75.25.24.17.48.34.72.51h0c0,.5,0,1,0,1.51-.49,0-.97,0-1.46,0-.96.03-2.01-.09-2.54.98-.11.23,0,.81.18.91,1.01.55,2.13.52,3.13.05.77-.36.62-1.23.67-1.95.78-.02,1.59.12,2.22-.53,8.77,4.29,17.54,8.61,26.33,12.86,1.88.91,2.82,2,1.59,4.05-.06.1-.07.24-.11.36q-3.81,10.28-18.07,9.4Z"/>
  <path class="cls-5" d="m171.27,208.96c0-2.76,0-5.51,0-8.27.03-10.33.13-20.67.07-31-.03-4.58.46-9.19-.33-13.76-.37-.33-.73-.66-1.1-.99-1.24-1.14-3.93.21-4.28-2.19-.46-3.07-.49-6.21.03-9.28.26-1.5,1.67-1.63,2.97-1.63,8.2.01,16.4.05,24.6,0,2.38-.01,3.41,1.09,3.41,3.38,0,1.99,0,3.98.02,5.97.03,1.88-.58,3.11-2.73,3.15-1.89.04-2.89,1.21-3.33,2.95-1.42,4.69-.26,9.5-.68,14.23-.51.08-1.23-1.65-1.33-.21-.15,2.04-.86,4.3.63,6.23,0,3.72,0,7.43,0,11.15-.41.54-.82,1.09-1.26,1.66-.5-.74-.07-1.83-1-2.33-.34-4.25.63-8.55-.57-12.76,0-3.01,0-6.02,0-9.04.81-1.24.83-2.47-.05-3.69-.04-.62-.02-1.25-.14-1.85-.25-1.28.86-3.43-1.58-3.43-2.51,0-1.69,2.22-1.9,3.68-.05.36,0,.74,0,1.12-.08,18.89-.16,37.78-.25,56.68-1.84-.14-2.27.88-2.29,2.52-.02,1.41.62,3.01-.76,4.2,0-21.42,0-42.83.01-64.25,0-.5.08-1.01-.02-1.49-.47-2.34-1.49-3.46-3.78-1.64-.74.36-.78.83-.23,1.4-.01,1.29-.03,2.59-.04,3.88-.73,1.14-.41,2.42-.42,3.63-.03,9.06,0,18.11-.05,27.17,0,1.17.44,2.46-.73,3.46-2.93,2.5-1.46,4.07,1.19,5.35,0,2.01,0,4.02-.01,6.03-1.36,0-2.73,0-4.09-.01Z"/>
  <path class="cls-6" d="m55.24,127.26c-1.01.09-2.13-.3-2.96.65-5.15.04-10.31-.04-15.45.18-3.32.14-4.69-1.38-4.82-4.47,2.48-3.16,7.2-4.68,8.61-7.91,1.95-4.46,6.08-4.77,9.18-7.06-1.31-1.53-3.15-.23-4.26-1.4,12.47-6.22,24.93-12.45,37.41-18.65.42-.21.94-.22,1.41-.32,1.01,0,2.12.17,2.34-1.29.17-.2.39-.27.64-.21,1.14.24,2.92-.64,3.32.74.46,1.53-1.5,1.63-2.46,2.25-1.03.66-2.26,1-2.28,2.61-.02,2.05-1.45,3.25-2.83,4.56-3.05,2.92-6.42,5.66-8.81,9.08-3.17,4.51-7.57,7.69-11.12,11.73-2.72,3.1-5.28,6.35-7.91,9.53Z"/>
  <path class="cls-5" d="m213.89,222.29c-.1-18.34-.2-36.68-.29-55.03-.02-3.12-.02-6.24,0-9.36,0-2-.7-3.53-2.9-3.54-2.52-.02-2.76-1.51-2.72-3.46.21-10.36-1.47-8.94,8.81-9.03,6.11-.05,12.22.12,18.32-.07,3.04-.09,4.03,1.22,3.92,3.98-.06,1.62,0,3.24.02,4.87.03,2.04-.2,3.67-2.94,3.73-2.1.05-2.8,1.58-2.78,3.65.05,4.49-.06,8.98-.1,13.47-1.08-.65-.06-3-1.81-2.76-1.57.21-1.43,2.1-1.73,3.35-.43,1.77.5,3.72-.68,5.41-.04-1-.12-1.99-.12-2.99-.02-5-.03-9.99-.02-14.99,0-1.27-.29-2.29-1.77-2.3-1.44,0-1.89.96-1.89,2.24,0,1,0,2-.01,3-.06,13.49-.12,26.98-.18,40.47-1.33-4.86-.45-9.81-.56-14.72-.05-2.28-.47-4.11-2.32-5.49-.05-6.86-.07-13.71-.19-20.57-.03-1.86.72-4.76-1.95-4.85-3.32-.11-2.11,3.09-2.13,4.92-.17,18.33-.21,36.65-.3,54.98-.99-1.03-.63-2.33-.64-3.53-.04-5.31-.03-10.63-.04-15.94-.08-3.86-.08-7.73-.3-11.59-.05-.9-.57-2.21-1.7-2.21-1.52,0-1.04,1.44-1.04,2.32,0,4.49.08,8.99.14,13.48-.48,7.52-.39,15.04-.09,22.57Z"/>
  <path class="cls-5" d="m155.52,252.47c-5.45.05-10.89.09-16.34.14-.34,0-.67,0-1.01,0-12.67-.03-25.35-.07-38.02-.1-1.09-1.25-2.55-.76-3.86-.77-12.58-.04-25.17-.03-37.75-.04-2.32,0-4.63,0-6.95,0,0-.33,0-.66,0-.99h53.99c0-.38,0-.76,0-1.14h-34.27c4.56-5.47,10.99-1.88,17.2-3.8-15.27-3.19-29.87-2.08-44.39-2.34.63-.84,1.55-.66,2.4-.66,17.66.03,35.32.07,52.97.1,1.23.92,2.65.49,3.98.5,18.58.07,37.15.11,55.73.15-1.08,1.24-2.52,1.43-4.06,1.45-1.57.02-2.78.56-3.56,2.16-1.27,2.62-3.06,4.7-6.58,4.07,3.52,1.19,7.19-.52,10.5,1.26Z"/>
  <path class="cls-5" d="m85.96,265.36c-1.02.4-2.03.41-3.05,0-2.36-1.13-3.93-3.89-7.18-3.21-1.94.4-2.55-.77-2.56-2.63-.01-1.95.77-2.66,2.67-2.59,2.6.09,5.21.06,7.81,0,1.15-.02,2.61.47,3.01-1.33,4.47-.5,9,.44,13.45-.51,11.99,0,23.98.02,35.98.03,3.19.87,6.47.08,9.69.51-.22,1.81-1.49,2.1-2.98,2.06-1.39-.04-2.89-.13-3.74,1.19-1.44,2.25-3.49,2.95-5.77,2.66,2.15,3.61,5.72,2.87,9.07,2.98.39.01.75.53,1.13.81-1.47.45-2.96.3-4.45.15-2.23-.59-4.47-.58-6.69.04-12.49.07-24.98.42-37.46-.16-2.97-1.48-5.95-1.47-8.93-.01Z"/>
  <path class="cls-7" d="m32.13,64.64c-7.72,10.9-14.35,22.4-19.06,34.96-4.88,13.02-7.63,26.43-8.94,40.3-1.35,14.29.25,28.34,2.76,42.2,1.34,7.39,4.02,14.77,7.1,21.82.32.74.99,1.49.43,2.81-3.55-5.82-5.63-12.01-7.6-18.19C1.76,172.74-.53,156.49.1,139.92c.53-13.74,2.71-27.24,7.22-40.29,4.59-13.32,10.5-25.97,18.74-37.45.43-.6.97-1.13,1.45-1.69,1.98.89,5.84-.31,4.62,4.15Z"/>
  <path class="cls-6" d="m133.06,130.96c8.56-.07,17.12-.21,25.68-.19,17.13.03,34.26.13,51.39.21-.4,2.13-2.09,2.18-3.72,2.28-1.86.11-3.76-.06-5.56.31-1.44.3-3.59.45-3.29,2.76.3,2.3,2.32,1.35,3.62,1.41,5.49.27,11.01.15,16.42,1.38-17.46,0-34.92,0-52.38.01-1.19-1.01-2.61-.59-3.93-.59-10.91-.03-21.82,0-32.74-.04-1.02,0-2.56.49-2.73-1.09-.16-1.49.7-2.47,2.42-2.66,2.32-.25,4.38-1.02,4.81-3.77Z"/>
  <path class="cls-5" d="m108.34,224.71c.48-.64.96-1.29,1.45-1.95,1.49.77.13,2.85,1.78,3.39.43.25.85.5,1.28.75.26.53.52.53.78,0l.19-.15.21.13c.35-.27.7-.54,1.05-.8.1-1.23.2-2.46.3-3.69.74-4.96.71-9.91,0-14.87,0-1.53,0-3.07,0-4.6,1.07-4.19.02-8.47.54-12.69,1.79.3,1.4,1.72,1.42,2.87.02,1.59.22,2.97,2.22,3.1.06,8.97.14,17.93.14,26.9,0,2.2.14,3.92,3.01,4.06,1.79.09,2.75,1.31,2.72,3.32-.15,11.29,1.12,9.17-8.87,9.32-6.22.09-12.44-.08-18.65.07-2.76.06-3.89-.99-3.74-3.7.1-1.74.05-3.49.02-5.23-.05-2.59.97-4.06,3.78-3.71.65.53,1.12.43,1.38-.4,0,0-.04.03-.04.03,2.4-.01,2.68-1.75,2.2-3.35-.93-3.07-.49-6.15-.58-9.23-.03-1.16-.44-2.6,1.3-3.05.58-.15,1.37-.49,1.53.34.23,1.19.66,2.8-.31,3.55-2.7,2.11-2.53,3.68.06,5.8,1.17.96-.2,3.17.97,4.55.17.16.23.35.19.58.31.26.62.52.93.78,0,0-.04-.15-.04-.15.04.19.09.38.13.57.15-.11.31-.23.46-.34l.25-.1.25.09c1.18.02,1.73-.54,1.62-1.73-.13-.17-.12-.33.06-.47Z"/>
  <path class="cls-6" d="m86.66,255.61c-.4,1.8-1.86,1.31-3.01,1.33-2.6.06-5.21.09-7.81,0-1.9-.07-2.68.64-2.67,2.59,0,1.85.61,3.03,2.56,2.63,3.24-.68,4.82,2.08,7.18,3.21-10.54.09-21.08.22-31.61.27-7.94.04-15.89,0-23.83-.01-.05-.28-.23-.38-.54-.31-.06-.24-.11-.48-.17-.72.02-.99.16-1.99.04-2.96-.42-3.46.8-5.21,4.5-4.7,1.01.14,2.02,0,2.25-1.33,17.71,0,35.41,0,53.12.01Z"/>
  <path class="cls-3" d="m55.24,127.26c2.63-3.18,5.19-6.43,7.91-9.53,3.55-4.04,7.95-7.22,11.12-11.73,2.39-3.41,5.76-6.16,8.81-9.08,1.38-1.31,2.8-2.51,2.83-4.56.02-1.61,1.25-1.95,2.28-2.61.96-.62,2.92-.72,2.46-2.25-.41-1.37-2.18-.49-3.32-.74,5.62-2.9,11.21-5.86,16.86-8.69,7.1-3.55,14.27-6.98,21.4-10.47-.28,1.85-1.99,2.05-3.23,2.78-1.55.91-3.59,1.27-3.73,3.7-.03.45-.84,1.28-1.2,1.23-3.58-.48-5.43,3.5-8.86,3.35-.91-.04-1.57.76-2.05,1.49-2.28,3.45-5.03,6.89-7.92,9.39-3.29,2.84-5.81,6.44-9.37,9.11-3.16,2.37-5.76,5.92-8.41,9.11-1.19,1.44-2.85,2.54-3.73,3.87-2.95,4.5-9.31,6.09-10.16,12.42-.26,1.92-1.89,3.61-4.61,3.27-2.33-.29-4.73-.07-7.1-.07Z"/>
  <path class="cls-6" d="m73.04,225.41q1.93-2.35,2.93-6.38c1.6.89.84,2.37,1.05,3.52.33.89.33,1.78.01,2.67.02.72.04,1.44,1.01,1.53,0,0-.08-.11-.08-.11-.05,1.01.43,1.06,1.16.64.56.05,1.12.09,1.67.14.19.12.38.23.58.32l.04.02c.27.23.53.46.8.69,0,0-.02-.02-.02-.02.18,3.84-.14,7.61-1.5,11.24-8.67.05-17.34.07-26.01.18-1.87.02-2.9-.8-2.87-2.56.05-2.7-.43-5.43.37-8.09,1.74-.3,3.87.16,4.5-2.31,0,0-.04.06-.04.06.26-.28.53-.56.79-.84,0,0-.04.04-.04.04,1.91-2.28.04-5.24,1.55-8.35,1.13,2.93,2.05,5.3,2.97,7.68,1.28,1.6,2.54,1.27,3.79-.04,1.01-.27,1.41-3.17,3.06-.72,1.11,2.18,2.49,2.75,4.28.69Z"/>
  <path class="cls-7" d="m280.55,92.01c5.76,12.97,8.51,26.66,9.75,40.72,2.06,23.25-1.57,45.6-10.43,67.14-.78,1.9-1.44,3.89-3.22,5.3,1.9-6.05,4.01-12.05,5.65-18.18,2.38-8.88,3.61-17.95,4.33-27.15,1.75-22.27-2.14-43.51-10.44-64.08-.09-.22-.06-.49-.08-.73,2.42.38,2.35-2.92,4.44-3.02Z"/>
  <path class="cls-6" d="m136.81.68c6.51-1.2,13.04-.53,19.55-.09,9.66.65,19.21,2.06,28.43,5.18-1.85-.02-3.71.32-5.53-.35-.82-.3-1.47.13-1.78.9-.33.83-.03,1.52.87,1.67,3.94.68-.97,1.86.39,2.84,1.05.55,2.43.21,3.76.21,1.58,0,2.3.65,2.2,2.22-15.49-4.09-31.22-5.99-47.25-5.15-2.21.12-4.42.35-6.63.53-1.01-1.6-2.4-1.52-3.92-.9-.6.25-1.39.38-1.62-.29-.31-.89.47-1.39,1.22-1.5,1.1-.15,2.23-.06,3.34-.14.91-.07,2.27.3,2.21-1.22-.05-1.19-1.24-1.01-2.07-1-1.8.03-3.6.15-5.59.24.45-.86.84-1.59,1.22-2.31.25-.02.5-.03.74-.05,3.55.65,7.15,1.83,10.46-.79Z"/>
  <path class="cls-9" d="m159.22,243.52c-18.58-.04-37.16-.08-55.73-.15-1.33,0-2.75.43-3.98-.5,3.11-.06,6.21-.18,9.32-.18,44.56.03,89.12.07,133.68.12,5.3,0,5.34.24,5.49,5.46.09,3.21-.99,4.49-4.27,4.41-7.95-.19-15.9-.14-23.84-.19-2.88-1.49-6.33-.78-9.38-2.55,5.11-.04,9.96-.3,11-6.42-7.44,0-15.38,0-23.32,0-6.74,0-13.49.01-20.23.02-6.24,0-12.48-.01-18.72-.02Z"/>
  <path class="cls-5" d="m217.61,139.11c-5.41-1.23-10.93-1.11-16.42-1.38-1.3-.06-3.33.89-3.62-1.41-.3-2.31,1.86-2.46,3.29-2.76,1.8-.37,3.7-.2,5.56-.31,1.63-.09,3.32-.14,3.72-2.28,11.81-.06,23.61-.1,35.42-.21,3.23-.03,2.31,2.28,2.28,3.95-.03,1.92.94,4.57-2.63,4.55-9.2-.06-18.4-.1-27.6-.15Z"/>
  <path class="cls-6" d="m44.13,243.43c14.52.26,29.12-.85,44.39,2.34-6.22,1.93-12.64-1.66-17.2,3.8h34.27c0,.38,0,.76,0,1.14h-53.99c0,.33,0,.66,0,.99,2.32,0,4.63,0,6.95,0,12.58,0,25.17,0,37.75.04,1.31,0,2.78-.49,3.86.77-13.62.07-27.24.15-40.86.21-4.33.02-8.67-.02-13-.03-.45-.04-.9-.09-1.36-.13-2.6-1.79-2.98-6.05-.8-9.11Zm21.74,5.73c-.19-.14-.34-.28-.52-.36-.09-.04-.23.05-.35.08.06.16.11.46.17.45.22,0,.44-.1.7-.17Z"/>
  <path class="cls-5" d="m184.7,13.27c.1-1.57-.62-2.22-2.2-2.22-1.33,0-2.71.34-3.76-.21-1.36-.98,3.55-2.16-.39-2.84-.9-.16-1.2-.84-.87-1.67.31-.77.97-1.2,1.78-.9,1.82.67,3.68.34,5.53.35,12.82,3.05,24.64,8.42,35.84,15.28,0,1.36-1.45.57-1.91,1.28-.47.72-2.18.86-1.29,2.17.91,1.34,1.61-.12,2.4-.44.29-.12.68.02,1.63.08-1.68,1.27-.53,3.45-2.46,4.28-9.93-5.88-20.53-10.28-31.32-14.27-.41-.77-.9-.86-1.48-.18-.71.22-1.02-.43-1.51-.69Z"/>
  <path class="cls-3" d="m133.06,130.96c-.43,2.76-2.49,3.53-4.81,3.77-1.72.18-2.58,1.17-2.42,2.66.17,1.58,1.72,1.09,2.73,1.09,10.91.04,21.82,0,32.74.04,1.32,0,2.75-.42,3.93.59-21.95,0-43.91,0-65.86,0-2.9-1.53-6.27.2-10.23-1.45,4.9-.83,4.25-3.93,4.26-6.71,13.22-.37,26.44-.31,39.65,0Z"/>
  <path class="cls-8" d="m213.88,225.77s-.13-.22-.13-.22c1.5-.66.26-2.64,1.66-3.46,1.19.86.48,3.07,2.37,3.34,3.06,2.16,3.74,1.69,4.37-2.97,1.04.96.83,3.15,2.98,3.01,1.27,1.33,2.54,1.67,3.81,0,1.52-.29,2.16-1.42,1.82-2.72-.76-2.96-.4-5.93-.33-8.88.05-1.75-1.23-4.84,1.34-4.93,1.65-.05.58,3.16.8,4.88.52,4.11-.88,8.36.84,12.4,0,0-.03-.05-.03-.05,0,.52-.02,1.03-.03,1.55-2.6,1.6-6,2.69-7.02,5.65-.91,2.64-2.35,2.6-4.38,2.66-1.52.05-3.3-.69-4.8.95,2.22.84,4.21.42,6.15.45,1.58.03,2.72.31,2.55,2.23-4.97.05-9.94.05-14.9.18-2.06.05-2.99-.79-2.95-2.85.04-1.74.15-3.5-.05-5.22-.4-3.42,1.16-4.85,4.42-4.79.81-.02,1.28-.46,1.5-1.21Z"/>
  <path class="cls-9" d="m244.57,265.31c-2.48,0-4.95.02-7.43.03-1.02-1.33-2.49-.84-3.79-.85-5.19-.05-10.38,0-15.57-.02-2.87-.01-3.56-2.41-4.13-4.4-.72-2.55,1.96-1.41,2.97-2.14,2.07-1.5,5.27-.2,7.05-2.65,10.21.03,20.42.07,30.63.1-.39,2.16-2.32,1.87-3.74,2.31-3.64,1.14-6.7,4.97-6,7.63Zm-24.48-2.63c-.23-.17-.36-.3-.52-.38-.09-.04-.23.01-.35.03.02.16.04.33.06.49.22-.04.44-.08.82-.14Z"/>
  <path class="cls-1" d="m93.41,130.97c-.02,2.78.64,5.88-4.26,6.71,3.96,1.65,7.32-.07,10.23,1.45-18.43.14-36.86.38-55.29-.13,2.36-1.03,4.83-.32,7.25-.47,4.86-.32,8.32-3.38,8.41-7.55,11.22-.38,22.45-.31,33.67,0Zm-9.89,4.55c-1.31.03-2.67.22-2.63,1.9.03,1.19,1.2,1.2,2.02,1.03,1.25-.26,3.16-.11,3.28-1.68.11-1.36-1.58-1.19-2.67-1.25Z"/>
  <path class="cls-7" d="m223.68,255.27c-1.78,2.46-4.98,1.15-7.05,2.65-1.01.73-3.69-.42-2.97,2.14.57,2,1.26,4.39,4.13,4.4,5.19.02,10.38-.03,15.57.02,1.3.01,2.76-.48,3.79.85-11.15.83-22.32.22-33.48.38-3.33.05-6.69.43-10-.3-.2-.59-.22-1.38-.62-1.72-1.99-1.71-.44-2.48.66-3.68,1.63-1.77,4.35-2.28,5.32-4.75,8.22-.56,16.44-.53,24.66.02Z"/>
  <path class="cls-3" d="m125.61,1.52c-.38.73-.76,1.45-1.22,2.31,2-.09,3.79-.21,5.59-.24.82-.01,2.01-.19,2.07,1,.07,1.52-1.3,1.15-2.21,1.22-1.11.09-2.24,0-3.34.14-.75.1-1.53.6-1.22,1.5.24.68,1.02.54,1.62.29,1.52-.62,2.91-.7,3.92.9-12.89,1.3-25.3,4.6-37.44,9.04-.38-1.62,3.64-1.78,1.68-3.11-4.06-2.76.86-2.43,1.05-3.7-.95-.4-1.81-.76-2.68-1.13,10.38-4.11,21.08-6.96,32.18-8.23Z"/>
  <path class="cls-8" d="m198.18,243.53h23.32c-1.04,6.11-5.89,6.38-11,6.42,3.05,1.77,6.5,1.07,9.38,2.55-10.97,0-21.94,0-32.91,0-2.52-1.81-5.55-.04-9.21-1.55,2.74,0,4.45.05,6.15-.02.72-.03,1.8.43,1.79-1.11-.02-2.73,1.41-4.13,4.19-4.1,3.23.03,6.47.06,9.7-.02,2.35-.06,4.76.34,7.89-.52-3.51-1.85-6.7.06-9.31-1.64Z"/>
  <path class="cls-4" d="m186.4,175.25c1.2,4.21.23,8.52.57,12.76,0,11.52.02,23.04-.02,34.56-.01,2.92.83,3.51,3.01,1.36.21,0,.41,0,.62.02.32,1.86.95,3.22,3.27,3.26,1.89.03,2.78,1.36,2.78,3.29-.03,11.26.89,9.18-8.56,9.29-3.36.04-6.71-.09-10.07-.14.25-.26.77-.58.72-.78-.49-2.33.76-2.49,2.66-3.25,1.87-.74,3.08-3.27,4.45-5.11,1.16-1.56-1.28-2.19-1.11-3.55,1.87-.9,1.57-2.61,1.57-4.21.04-15.83.08-31.67.11-47.5Z"/>
  <path class="cls-9" d="m280.55,92.01c-2.09.1-2.02,3.4-4.44,3.02-4.06-9.17-9.01-17.87-14.34-26.35-.06-.61-.23-1.14-.9-1.33,0,0,.07.1.07.1-.67-3.99-4.29-7.18-3.14-11.71.87.33,1.74.65,2.61.98,0,0-.08-.01-.08-.01.26.28.51.55.77.83,0,0,0-.03,0-.03-1.26,3.13.17,4.32,3.15,4.39,0,0-.15,0-.15,0,.29.29.57.58.85.87,4.73,6.31,8.76,13.02,11.78,20.32-1.18,6.26-.58,7.63,3.61,8.22.07.24.13.48.2.72Z"/>
  <path class="cls-2" d="m184.71,226.96c-.17,1.36,2.27,1.99,1.11,3.55-1.36,1.84-2.58,4.37-4.45,5.11-1.9.76-3.15.92-2.66,3.25.04.2-.47.52-.72.78-3.25,0-6.51.01-9.76.02-.48-.64-1.05-.67-1.68-.26,0,0-.23-.18-.23-.18,1.2-2.83,2.47-5.64,1.93-8.86-.06-.35,0-1.02.13-1.05,3.32-.86,3.53-4.26,5.04-6.69,1.42,1.03.03,3.55,2.4,3.49h0c0,1.26.71,1.67,1.82,1.51,1.25-.19,1.78-1.01,1.77-2.23l.02.04c1.38-1.19.73-2.79.76-4.2.03-1.65.45-2.66,2.29-2.52,0,1.01,0,2.01,0,3.02-1.18,1.39-1.12,2.7.26,3.92.66.44,1.32.87,1.98,1.31Z"/>
  <path class="cls-8" d="m199.02,255.25c-.97,2.47-3.69,2.98-5.32,4.75-1.1,1.2-2.65,1.97-.66,3.68.4.35.42,1.14.62,1.72-5.45.28-10.9.35-16.35-.06-.27-.24-.51-.61-.82-.71-4.2-1.24-4.74-3.1-1.78-6.27.83-.89,1.9-1.64,1.76-3.08.79-.04,1.58-.08,2.37-.12,1.68.53,3.36.53,5.03,0,5.05.03,10.1.05,15.15.08Z"/>
  <path class="cls-7" d="m244.57,265.31c-.7-2.66,2.36-6.49,6-7.63,1.42-.44,3.35-.15,3.74-2.31,2.06-.68,4.19-.33,6.28-.33,4.43,0,4.95.57,4.97,4.87.03,5.75.02,5.85-5.8,5.72-5.06-.11-10.14.5-15.19-.32Z"/>
  <path class="cls-5" d="m82.93,22.26c-6.92,3.7-13.57,7.86-20.15,12.12,2.22-3.8-.74-2.93-2.56-2.69-.62-1.77,3.59-2.33.66-4.27,6.31-5.07,13.23-9.11,20.58-12.46,1.47,1.71,3.28-.73,5.29.66-4.16.78-1.87,4.12-2.95,6.16,0,0,.08-.09.08-.09-.31.19-.62.39-.94.58Z"/>
  <path class="cls-4" d="m176.46,255.29c.15,1.45-.92,2.19-1.76,3.08-2.96,3.17-2.42,5.02,1.78,6.27.32.09.55.47.82.71-5.78.2-11.56.59-17.33,0-1.88-1.88-4.23-.47-6.33-.89-.74-.15-1.6-.13-1.63-1.1-.03-.99.83-1.11,1.59-1.12,4.49-.08,5.17-2.98,4.9-6.59.08-.15.11-.31.08-.49,5.96-.18,11.92-.33,17.87.13Zm-5.74,6.65c-.24-.18-.38-.31-.55-.38-.1-.04-.26-.02-.36.04-.3.17-.28.39.06.48.2.05.45-.06.84-.13Z"/>
  <path class="cls-2" d="m158.51,255.64c.27,3.61-.42,6.51-4.9,6.59-.76.01-1.62.13-1.59,1.12.03.96.9.95,1.63,1.1,2.09.42,4.44-.98,6.33.89-5.5.4-10.99.5-16.49,0-.38-.28-.75-.8-1.13-.81-3.35-.11-6.92.62-9.07-2.98,2.28.29,4.33-.41,5.77-2.66.84-1.32,2.35-1.23,3.74-1.19,1.5.04,2.76-.24,2.98-2.06,2.22-.44,4.52.36,6.71-.49,1.76.01,3.52.02,5.28.04.25.15.49.3.74.45Z"/>
  <path class="cls-2" d="m159.22,243.52c6.24,0,12.48.01,18.73.02-.11.85-.57,1.47-1.45,1.37-3.55-.41-5.41,2.22-7.94,3.96,1.49,1.16,3.44-.16,4.92,1.89-1.71.08-2.9.16-4.1.18-1.34.03-2.68,0-4.84,0,3.16,1.54,5.98-.27,8.22,1.51-5.74.29-11.48.37-17.22,0-3.3-1.77-6.98-.07-10.5-1.26,3.51.63,5.31-1.46,6.58-4.07.78-1.61,1.99-2.14,3.56-2.16,1.54-.02,2.97-.21,4.06-1.45Z"/>
  <path class="cls-4" d="m172.74,252.47c-2.24-1.78-5.06.03-8.22-1.51,2.16,0,3.5.02,4.84,0,1.2-.02,2.39-.1,4.1-.18-1.48-2.05-3.43-.73-4.92-1.89,2.53-1.74,4.39-4.37,7.94-3.96.88.1,1.34-.52,1.45-1.37,6.74,0,13.49-.01,20.23-.02,2.6,1.7,5.8-.22,9.31,1.64-3.12.87-5.54.46-7.89.52-3.23.08-6.46.05-9.7.02-2.78-.02-4.21,1.37-4.19,4.1,0,1.55-1.07,1.08-1.79,1.11-1.71.08-3.42.02-6.15.02,3.66,1.51,6.69-.26,9.21,1.55-.46.01-.93.03-1.39.04-.33,0-.66,0-.98,0-2.17,0-4.33,0-6.5,0-.33,0-.67,0-1,0-1.45-.03-2.9-.05-4.35-.08Z"/>
  <path class="cls-9" d="m225.85,239.66c.16-1.92-.97-2.2-2.55-2.23-1.94-.04-3.94.38-6.15-.45,1.5-1.64,3.28-.91,4.8-.95,2.04-.06,3.47-.01,4.38-2.66,1.02-2.96,4.42-4.05,7.02-5.65.27-.27.53-.53.8-.8,3.84-.17,5.04,1.67,4.97,5.45-.15,8.88-.1,7.35-7.37,7.45-1.97.03-3.94-.1-5.9-.15Z"/>
  <path class="cls-4" d="m233.42,226.22c-1.72-4.04-.33-8.28-.84-12.4-.22-1.73.85-4.94-.8-4.88-2.57.08-1.3,3.17-1.34,4.93-.08,2.95-.44,5.92.33,8.88.34,1.3-.3,2.43-1.82,2.72.02-10.75.04-21.49.06-32.24,1.39-3.45-.14-7.51,2.18-10.96,1.67,1.39,1.34,3.16,1.46,4.83.28,4.27-.69,8.6.58,12.83.07,8.76.14,17.53.21,26.29Z"/>
  <path class="cls-2" d="m219.01,28.41c1.93-.83.78-3.01,2.46-4.28-.95-.06-1.34-.19-1.63-.08-.79.32-1.49,1.78-2.4.44-.89-1.31.82-1.45,1.29-2.17.46-.71,1.9.08,1.91-1.28,5.53,3.23,10.83,6.78,15.63,11.05-3.28.88-3.65,3.27-3.16,6.11-4.7-3.26-9.4-6.53-14.09-9.79Z"/>
  <path class="cls-4" d="m233.1,38.2c-.49-2.84-.12-5.23,3.16-6.11,4.71,3.53,9.37,7.12,12.86,11.96-1.89,1.28-2.35,3.58-3.71,5.23-3.53-3.22-7.06-6.45-10.59-9.67-.31-.23-.62-.46-.93-.7,0,0,.1.1.1.1-.29-.28-.58-.57-.87-.85l-.04.03Z"/>
  <path class="cls-8" d="m245.41,49.28c1.36-1.66,1.82-3.95,3.71-5.23,4.47,3.59,8.16,7.87,11.29,12.66-.87-.33-1.74-.65-2.61-.98-1.16,4.54,2.47,7.72,3.14,11.71-5.09-6.12-9.97-12.43-15.52-18.16Z"/>
  <path class="cls-5" d="m45.54,107.24c1.11,1.17,2.96-.13,4.26,1.4-3.1,2.29-7.23,2.6-9.18,7.06-1.42,3.24-6.13,4.75-8.61,7.91-.1-.07-.26-.11-.3-.2q-3.73-7.62,3.91-11.43c3.29-1.63,6.61-3.17,9.92-4.75Z"/>
  <path class="cls-3" d="m59.74,130.98c-.09,4.18-3.55,7.23-8.41,7.55-2.42.16-4.89-.56-7.25.47-2.22-2.17-.95-4.83-.93-7.28,0-1.07,1.29-.94,2.12-.93,4.82.04,9.64.12,14.46.18Z"/>
  <path class="cls-8" d="m49.94,44.83c-3.68,3.77-7.36,7.54-11.04,11.31-.25-1.16.13-2.19.67-3.18,1.46-2.69.63-4.14-2.37-4.44,3.34-4.15,6.99-8,11.24-11.23.27,2.42,4.12,3,3.11,6.08,0,0,.01-.03.01-.03-.26.26-.52.52-.78.78,0,0,.03-.03.03-.03-.29.25-.58.5-.87.75Z"/>
  <path class="cls-4" d="m175.82,226.12c-2.38.06-.99-2.46-2.4-3.49-1.5,2.43-1.71,5.83-5.04,6.69-.13.03-.19.71-.13,1.05.54,3.22-.72,6.03-1.93,8.86-1.85-3.25-.77-6.76-.74-10.15.01-1.31,1.48-1.93,2.79-2,2.35-.13,2.75-1.57,2.74-3.56-.01-4.85.09-9.71.15-14.57,1.36,0,2.73,0,4.09.01.15,5.72.31,11.43.46,17.15Z"/>
  <path class="cls-4" d="m51.56,43.37c1.01-3.08-2.84-3.66-3.11-6.08,3.83-3.68,7.77-7.23,12.42-9.86,2.93,1.94-1.28,2.5-.66,4.27,1.83-.24,4.79-1.11,2.56,2.69,0,0,.01-.04.01-.04-.3.26-.6.51-.91.77-3.44,2.75-6.89,5.51-10.33,8.26Z"/>
  <path class="cls-9" d="m37.21,48.52c2.99.3,3.83,1.75,2.37,4.44-.54.99-.92,2.02-.67,3.18,0,0-.02-.01-.02-.01-1.19.22-2.77.13-1.69,2.14-1.69,2.12-3.38,4.25-5.07,6.37,1.22-4.46-2.64-3.26-4.62-4.15,2.82-4.32,5.86-8.47,9.7-11.97Z"/>
  <path class="cls-6" d="m83.78,21.78c1.09-2.04-1.2-5.38,2.95-6.16-2-1.38-3.82,1.05-5.29-.66.17-.19.39-.26.64-.22.25-.16.51-.32.76-.48,3.47-1.63,6.87-3.41,10.58-4.5.86.36,1.73.73,2.68,1.13-.19,1.26-5.1.94-1.05,3.7,1.96,1.33-2.06,1.49-1.68,3.11,0,0-.33.14-.33.14,0,0-.35,0-.35,0-.95.02-2.01-.19-2.29,1.15-2.21.93-4.42,1.86-6.63,2.79Z"/>
  <path class="cls-4" d="m217.78,225.43c-1.9-.27-1.18-2.48-2.37-3.34-1.4.81-.17,2.8-1.66,3.46.05-1.08.1-2.17.14-3.26-.3-7.53-.39-15.05.09-22.57.86-.81,1.15-2.48,2.9-2,.01,5.31,0,10.63.04,15.94,0,1.2-.35,2.5.64,3.53.07,2.74.14,5.48.22,8.23Z"/>
  <path class="cls-2" d="m233.2,199.93c-1.26-4.23-.29-8.56-.58-12.83-.11-1.68.21-3.45-1.46-4.83-2.31,3.45-.78,7.51-2.18,10.96,0-5.24,0-10.48,0-15.72,1.18-1.69.25-3.65.68-5.41.3-1.25.16-3.13,1.73-3.35,1.75-.24.73,2.11,1.81,2.76,0,9.47-.01,18.95-.02,28.42Z"/>
  <path class="cls-6" d="m190.57,223.95c-.21-.01-.41-.02-.62-.02-.24-11.75.63-23.52-.73-35.25,0-3.72,0-7.43,0-11.15.23-2.01.47-4.01.7-6.02.42-4.74-.75-9.55.68-14.23,0,22.22-.01,44.45-.02,66.67Z"/>
  <path class="cls-7" d="m86.66,255.61c-17.71,0-35.41,0-53.12-.01-2.18-.07-4.37-.13-6.55-.2.8-.84,1.84-.61,2.81-.61,22.71,0,45.42,0,68.13.02.73,0,1.46.19,2.19.29-4.46.94-8.98,0-13.45.51Z"/>
  <path class="cls-4" d="m171,155.92c.79,4.57.3,9.17.33,13.76.07,10.33-.03,20.67-.07,31-.07-13.3-.13-26.61-.2-39.91,0-1.62-.04-3.23-.07-4.85Z"/>
  <path class="cls-3" d="m26.99,255.4c2.18.07,4.37.13,6.55.2-.22,1.33-1.24,1.47-2.25,1.33-3.7-.51-4.93,1.24-4.5,4.7.12.97-.02,1.98-.04,2.96-2.23-1.78-2.1-7.03.24-9.2Z"/>
  <path class="cls-7" d="m280.35,91.29c-4.19-.59-4.8-1.96-3.61-8.22,1.69,2.53,2.84,5.29,3.61,8.22Z"/>
  <path class="cls-6" d="m85.96,265.36c2.98-1.46,5.95-1.47,8.93.01-2.98.4-5.95.41-8.93-.01Z"/>
  <path class="cls-3" d="m136.81.68c-3.31,2.62-6.9,1.45-10.46.79,3.46-.58,6.92-1.15,10.46-.79Z"/>
  <path class="cls-7" d="m152.49,255.15c-2.19.84-4.49.05-6.71.49-3.22-.42-6.5.37-9.69-.51,5.47-.53,10.93-.51,16.4.02Z"/>
  <path class="cls-3" d="m80.7,239.67c1.36-3.63,1.68-7.4,1.5-11.24,1.4,3.15.39,6.45.53,9.68.05,1.07-.83,1.72-2.03,1.55Z"/>
  <path class="cls-8" d="m264.25,61.89c-2.98-.08-4.41-1.27-3.15-4.39,1.32,1.27,2.38,2.73,3.15,4.39Z"/>
  <path class="cls-3" d="m191.54,80.76c-.49.35-.4.8-.28,1.29.2.81,0,1.5-.92,1.62-.44.06-1.1,0-1.34-.29-.65-.76.21-1.26.51-1.87.21-.43.3-.91.44-1.37.68-.18,1.24-.05,1.59.62Z"/>
  <path class="cls-3" d="m56.7,226.88c-.63,2.47-2.76,2.01-4.5,2.31.63-2.47,2.81-1.92,4.5-2.31Z"/>
  <path class="cls-7" d="m132.35,265.53c2.23-.62,4.46-.63,6.69-.04-2.23.5-4.46.53-6.69.04Z"/>
  <path class="cls-7" d="m183.86,255.17c-1.68.52-3.36.53-5.03,0,1.68-.46,3.36-.46,5.03,0Z"/>
  <path class="cls-8" d="m37.2,58.27c-1.09-2.02.49-1.93,1.69-2.14-.2,1-1,1.53-1.69,2.14Z"/>
  <path class="cls-6" d="m231.11,101.78c0-.5,0-1.01,0-1.51.74.33,1.47.65,2.21.98-.63.65-1.44.51-2.22.53h0Z"/>
  <path class="cls-3" d="m90.42,18.98c.28-1.34,1.34-1.13,2.29-1.15-.54.82-1.48.86-2.29,1.15Z"/>
  <path class="cls-3" d="m86.69,86.98c-.22,1.46-1.32,1.29-2.34,1.29.78-.43,1.56-.86,2.34-1.29Z"/>
  <path class="cls-6" d="m186.21,13.96c.58-.68,1.07-.59,1.48.18l-1.48-.18Z"/>
  <path class="cls-3" d="m79.13,227.28c-.73.42-1.21.37-1.16-.64.39.21.78.43,1.16.64Z"/>
  <path class="cls-6" d="m99.35,226.83c-.26.83-.73.93-1.38.4.46-.13.92-.27,1.38-.4Z"/>
  <path class="cls-5" d="m213.88,225.77c-.22.75-.7,1.19-1.5,1.21.21-.77.93-.9,1.5-1.21Z"/>
  <path class="cls-4" d="m166.55,239.41c.64-.41,1.21-.38,1.68.26-.61.2-1.19.25-1.68-.26Z"/>
  <path class="cls-3" d="m78.04,226.75c-.97-.09-.99-.81-1.01-1.53.34.51.67,1.02,1.01,1.53Z"/>
  <path class="cls-8" d="m260.86,67.35c.67.19.84.73.9,1.33-.3-.44-.6-.89-.9-1.33Z"/>
  <path class="cls-4" d="m234.15,226.91c-.27.27-.53.53-.8.8,0-.52.02-1.03.03-1.55.26.25.51.5.77.75Z"/>
  <path class="cls-9" d="m44.94,252.54c.45.04.91.09,1.36.13-.49.35-.95.41-1.36-.13Z"/>
  <path class="cls-3" d="m82.22,228.46c-.27-.23-.53-.46-.8-.69.47,0,.73.24.8.69Z"/>
  <path class="cls-9" d="m177.1,252.55c.33,0,.67,0,1,0-.33.31-.67.31-1,0Z"/>
  <path class="cls-9" d="m184.6,252.54c.33,0,.66,0,.98,0-.33.33-.65.33-.98,0Z"/>
  <path class="cls-6" d="m231.12,100.28c-.24-.17-.48-.34-.72-.51.24.17.48.34.72.51Z"/>
  <path class="cls-2" d="m233.14,38.17c.29.28.58.57.87.85-.29-.28-.58-.57-.87-.85Z"/>
  <path class="cls-5" d="m82.86,14.25c-.26.16-.51.32-.76.48.26-.16.51-.32.76-.48Z"/>
  <path class="cls-7" d="m158.51,255.64c-.25-.15-.49-.3-.74-.45.27-.01.55-.02.82-.04.03.17,0,.33-.08.49Z"/>
  <path class="cls-8" d="m261.1,57.52c-.26-.28-.51-.55-.77-.83.26.28.51.55.77.83Z"/>
  <path class="cls-6" d="m82.93,22.26c.31-.19.62-.39.94-.58-.31.19-.62.39-.94.58Z"/>
  <path class="cls-5" d="m61.89,35.1c.3-.26.6-.51.91-.77-.3.26-.6.51-.91.77Z"/>
  <path class="cls-4" d="m49.94,44.83c.29-.25.58-.5.87-.75-.08.49-.39.72-.87.75Z"/>
  <path class="cls-8" d="m264.95,62.76c-.28-.29-.57-.58-.85-.87.28.29.57.58.85.87Z"/>
  <path class="cls-4" d="m50.78,44.12c.26-.26.52-.52.78-.78-.26.26-.52.52-.78.78Z"/>
  <path class="cls-3" d="m57.44,226.1c-.26.28-.53.56-.79.84.26-.28.53-.56.79-.84Z"/>
  <path class="cls-3" d="m81.38,227.74c-.2-.1-.4-.2-.58-.32.19.11.39.22.58.32Z"/>
  <path class="cls-2" d="m233.9,38.92c.31.23.62.47.93.7-.31-.23-.62-.47-.93-.7Z"/>
  <path class="cls-7" d="m26.92,265.32c.31-.07.48.03.54.31-.41.3-.55.13-.54-.31Z"/>
  <path class="cls-9" d="m138.17,252.6c.34,0,.68,0,1.01,0-.34.34-.68.33-1.01,0Z"/>
  <path class="cls-7" d="m115.38,202.93c-.4-4.47-.43-8.94.01-13.41.18.24.35.49.53.73-.52,4.21.54,8.5-.54,12.69Z"/>
  <path class="cls-7" d="m115.38,169.92c-.42-2.7-.41-5.41,0-8.11.7,2.7.69,5.41,0,8.11Z"/>
  <path class="cls-5" d="m109.63,215.63c-.73-2.35-.52-4.01,0-5.68v5.68Z"/>
  <path class="cls-7" d="m115.39,182.7c-.41-1.97-.41-3.94,0-5.91.72,1.97.72,3.94,0,5.91Z"/>
  <path class="cls-7" d="m115.34,159.44c-.05-.42-.09-.83-.14-1.25.72.34.68.77.14,1.25Z"/>
  <path class="cls-6" d="m154.62,112.15c.24.03.49.02.72.09.95.28,2.39-.57,2.76.93.19.77-.68,1.17-1.44,1.27-1.81.23-1.85-1.1-2-2.32,0,0-.03.03-.03.03Z"/>
  <path class="cls-6" d="m140.45,126.85c1.13-.45,2.11-.54,3.22.08-1.13.45-2.11.54-3.22-.08Z"/>
  <path class="cls-6" d="m231.1,101.78c-.05.71.1,1.59-.67,1.95-1.01.47-2.12.5-3.13-.05-.18-.1-.3-.68-.18-.91.53-1.07,1.58-.95,2.54-.98.49-.01.97,0,1.46,0,0,0,0,0,0,0Z"/>
  <path class="cls-2" d="m189.22,188.68c1.37,11.73.5,23.5.73,35.25-2.18,2.15-3.02,1.56-3.01-1.37.04-11.52.02-23.04.02-34.56.93.5.5,1.59,1,2.33.43-.57.84-1.11,1.26-1.66Z"/>
  <path class="cls-4" d="m175.37,163.33c.36,13.2.34,26.41,0,39.61-2.66-1.28-4.12-2.85-1.19-5.35,1.17-1,.73-2.29.73-3.46.05-9.05.02-18.11.05-27.17,0-1.21-.31-2.49.42-3.63Z"/>
  <path class="cls-2" d="m189.91,171.51c-.23,2.01-.47,4.01-.7,6.02-1.49-1.93-.78-4.19-.63-6.23.1-1.44.83.29,1.33.21Z"/>
  <path class="cls-4" d="m186.4,166.21c-.02-1.23-.03-2.46-.05-3.69.88,1.22.85,2.45.05,3.69Z"/>
  <path class="cls-4" d="m175.64,158.05c-.08.47-.15.93-.23,1.4-.55-.57-.51-1.04.23-1.4Z"/>
  <path class="cls-4" d="m225,209.68c.04,5.26.09,10.53.13,15.79-2.15.14-1.94-2.06-2.98-3.01-.01-13.25-.02-26.49-.03-39.74,1.85,1.38,2.27,3.21,2.32,5.49.11,4.91-.77,9.86.56,14.72,0,1.28,0,2.57,0,3.85-.84.97-.84,1.94,0,2.9Z"/>
  <path class="cls-2" d="m216.88,197.73c-1.75-.48-2.04,1.18-2.9,2-.05-4.5-.14-8.99-.14-13.48,0-.87-.48-2.31,1.04-2.32,1.13,0,1.65,1.32,1.7,2.21.21,3.86.22,7.72.3,11.59Z"/>
  <path class="cls-7" d="m115.38,222.4c-.39-4.96-.41-9.91,0-14.87.71,4.96.74,9.91,0,14.87Z"/>
  <path class="cls-6" d="m106.67,226.91c.54-.58,1.08-1.15,1.62-1.73.11,1.19-.44,1.76-1.62,1.73Z"/>
  <path class="cls-6" d="m105.57,226.69c.25-.05.45.03.6.23-.15.11-.31.23-.46.34-.04-.19-.09-.38-.13-.57Z"/>
  <path class="cls-6" d="m112.86,226.91c.26,0,.52,0,.78,0-.26.53-.52.52-.78,0Z"/>
  <path class="cls-6" d="m114.03,226.9c.35-.27.7-.54,1.05-.8-.35.27-.7.54-1.05.8Z"/>
  <path class="cls-6" d="m104.68,226.06c.31.26.62.52.93.78-.31-.26-.62-.52-.93-.78Z"/>
  <path class="cls-5" d="m65.87,249.15c-.26.07-.48.17-.7.17-.05,0-.11-.29-.17-.45.12-.03.26-.12.35-.08.18.08.33.22.52.36Z"/>
  <path class="cls-7" d="m220.09,262.68c-.38.06-.6.1-.82.14-.02-.16-.04-.33-.06-.49.12-.01.26-.07.35-.03.16.07.3.21.52.38Z"/>
  <path class="cls-3" d="m83.52,135.52c1.09.07,2.78-.11,2.67,1.25-.12,1.56-2.03,1.42-3.28,1.68-.83.17-1.99.16-2.02-1.03-.04-1.68,1.31-1.87,2.63-1.9Z"/>
  <path class="cls-4" d="m175.81,226.12c1.43.9,2.56.33,3.59-.73.01,1.22-.52,2.04-1.77,2.23-1.12.17-1.83-.25-1.82-1.5Z"/>
  <path class="cls-5" d="m182.47,221.73c.09,1.3.17,2.61.26,3.92-1.38-1.22-1.44-2.52-.26-3.92Z"/>
  <path class="cls-8" d="m170.73,261.93c-.4.07-.64.18-.84.13-.34-.09-.36-.31-.06-.48.1-.06.26-.08.36-.04.17.07.31.21.55.38Z"/>
  <path class="cls-5" d="m225,209.68c-.84-.97-.85-1.94,0-2.9,0,.97,0,1.94,0,2.9Z"/>
</svg>